<!--?xml version="1.0" encoding="utf-8"?-->
<!-- Generator: Adobe Illustrator 22.1.0, SVG Export Plug-In . SVG Version: 6.00 Build 0)  -->
<svg version="1.1" id="_x35_" xmlns="http://www.w3.org/2000/svg"
	xmlns:xlink="http://www.w3.org/1999/xlink" x="0px" y="0px" viewBox="0 0 709.162 800"
	style="width: 444px;" xml:space="preserve">
<style type="text/css">
	.st0{fill:#8ad3f2;}
</style>
<g>
	<path class="st0" d="M1.84,402.389c-1.043-19.714,10.377-79.905,12.455-95.476c-5.191-15.563,7.264-28.018,4.147-44.62
		c-3.112-16.606,1.038-80.949,7.273-101.711c-13.498-10.373-5.194-19.719-4.156-30.092C15.33,105.58,67.227,91.048,67.227,91.048
		C59.958,81.71,63.07,63.03,63.07,63.03s-2.073-5.19-2.073-23.87c0-18.676,18.679-33.208,33.208-36.326
		c14.528-3.112,42.551,3.118,47.736,8.312c5.191,5.177,9.347,23.867,9.347,23.867s12.569,2.815,19.828,2.815
		c7.264,0,8.307,4.147,0,10.368c-8.303,6.233-18.799,4.452-18.799,4.452s-1.408,5.482-0.037,8.914c1.372,3.418,0,6.845,0,6.845
		s3.432,8.216,4.107,10.267c0.693,2.065,2.06,4.12-2.047,6.85c-4.105,2.738-4.798,4.803-4.105,8.225
		c0.674,3.418-2.744,6.845-2.744,6.845s1.71,1.021,0.684,4.107c0,0-2.397,5.14-2.74,8.225c0,0-0.683,3.076,1.714,5.127
		c2.393,2.065,3.76,10.623,1.026,13.362c0,0-4.453,2.055-3.769,4.452c0.683,2.397,0.683,8.559,2.743,10.277
		c2.051,1.709,3.76,5.127,3.422,6.503c-0.337,1.367,9.589,14.719,10.618,18.834c1.025,4.107,1.021,17.126,0.342,20.202
		c-0.688,3.085-1.713,35.614-0.342,41.775c1.367,6.171,4.107,15.071,2.05,18.489c-2.05,3.432,2.056,4.799,4.795,7.537
		c2.739,2.744,2.739,8.905,2.739,8.905s23.287,1.372,31.509,1.372c8.211,0,7.191-0.342,8.211,0c5.364,1.782,4.111,5.482,4.111,5.482
		s6.165,2.735,9.593,0.68c3.422-2.056,11.985,0.346,8.9,4.105c10.277,4.12,8.905,2.065,11.644,6.17
		c2.738,4.107,6.17,8.217,5.477,10.281c-0.684,2.05-4.453,3.418-7.537-2.065c-1.203-2.151-4.107-2.743-5.132-2.055
		c-1.025,0.688,0.688,1.709-1.367,5.483c0,0-4.111,1.709-4.458,3.076c-0.342,1.376-2.392,3.773-3.422,3.773
		c-1.025,0-3.769,4.447-4.794,5.469c-1.031,1.035-10.272,3.09-16.78-1.363c0,0,1.03,8.9-0.342,9.246
		c-1.372,0.343-26.709,2.052-29.795,3.427c-3.081,1.368-33.559-1.595-33.559,2.73c0,1.723-2.05,19.523-1.029,21.578
		c1.029,2.051,1.375,17.468,2.748,19.523c1.362,2.051,1.709,10.618,0.337,11.986c-1.371,1.367,1.713,29.102,3.432,32.187
		c1.709,3.086-1.039,9.247-4.457,9.935l-0.684,8.554l-7.532,1.368c0,0,0.683,47.945,1.367,53.428
		c0.683,5.473-10.267,71.912-8.9,84.24c1.363,12.331-13.699,58.901-15.066,69.856c-1.162,9.279-15.08,52.9-18.493,69.397
		c3.764,2.588,7.746,4.994,10.271,5.943c5.482,2.055,10.267,9.588,9.589,13.006c-0.515,2.589-4.544,5.173-9.137,6.289
		c0.342,0.853,0.661,1.718,0.92,2.615c2.744,9.589,13.694,23.297,24.649,26.026c10.96,2.74,19.186,23.297,4.111,30.142
		c-15.067,6.849-52.053,1.367-52.053,1.367s-32.875,10.955-43.826,4.106c-10.955-6.844-4.11-42.463-4.11-42.463s-3.76,0-5.715-2.228
		c-15.649,2.907-25.794-3.245-25.794-3.245s-2.05-10.277-1.362-17.122c0.679-6.849,6.84-20.548,6.84-20.548l2.06-10.277
		l-4.795-1.362c-2.743-8.226,10.961-53.433,13.694-61.646c2.744-8.221,16.443-56.158,16.443-60.278c0-4.106-1.372-16.423,0-21.906
		c0.788-3.172-0.706-45.813-2.114-81.168c-2.84-8.859-4.735-14.716-4.735-14.716s-17.104-31.686-15.399-41.871
		C14.295,416.918,3.914,416.918,1.84,402.389z"></path>
	<path class="st0" d="M140.397,321.537c-2.302,0.938-3.463,3.399-2.611,5.504l2.698,6.659c0.857,2.105,3.404,3.052,5.696,2.128
		l104.852-42.486c2.293-0.926,3.459-3.386,2.611-5.492l-2.707-6.663c-0.847-2.105-3.399-3.053-5.687-2.123L140.397,321.537z"></path>
	<path class="st0" d="M243.156,282.249c0.101,0.719,111.77-48.958,226.899-89.827c57.516-20.471,116.126-38.313,161.283-46.852
		c45.198-9.857,76.542-4.23,76.046-2.853c-0.032,0.3-30.57-3.878-75.216,6.973c-44.574,9.556-102.669,26.067-159.811,47.08
		c-114.403,41.962-225.618,91.914-226.023,91.317L243.156,282.249z"></path>
</g>
</svg>