<?xml version="1.0" encoding="UTF-8" standalone="no"?>
<!DOCTYPE svg PUBLIC "-//W3C//DTD SVG 1.1//EN" "http://www.w3.org/Graphics/SVG/1.1/DTD/svg11.dtd">
<svg width="4093.00" height="2894.00" viewBox="0.00 0.00 4093.00 2894.00" xmlns="http://www.w3.org/2000/svg" xmlns:xlink="http://www.w3.org/1999/xlink">
<g stroke-linecap="round" id="レイヤー_1">
<path d="M-170.37,2466.67 C-154.39,2455.00 -120.95,2430.58 -103.50,2417.84 C-84.57,2404.02 -45.25,2375.31 -24.86,2360.42 C-2.99,2344.46 42.21,2311.46 65.55,2294.42 C90.35,2276.31 141.44,2239.02 167.72,2219.84 C195.47,2199.58 252.44,2158.00 281.66,2136.67 C312.35,2114.27 375.20,2068.39 407.36,2044.91 C440.99,2020.36 509.73,1970.19 544.83,1944.57 C581.14,1918.12 652.90,1866.25 688.34,1840.84 C722.49,1816.87 789.48,1770.37 822.33,1747.83 C853.87,1726.74 915.67,1686.00 945.91,1666.35 C974.86,1648.13 1031.45,1613.15 1059.10,1596.38 C1085.44,1581.05 1136.83,1551.82 1161.88,1537.93 C1185.62,1525.48 1232.14,1501.66 1254.26,1491.00 C1275.73,1481.07 1316.72,1463.37 1336.24,1455.60 C1345.67,1452.07 1364.21,1445.38 1373.32,1442.21 C1378.36,1440.56 1399.45,1437.06 1407.86,1436.17 C1417.52,1435.17 1435.89,1434.51 1444.59,1434.85 C1453.29,1435.22 1469.73,1437.30 1477.47,1439.01 C1485.20,1440.74 1499.71,1445.55 1506.49,1448.63 C1513.25,1451.73 1525.83,1459.27 1531.65,1463.72 C1537.45,1468.18 1548.10,1478.46 1552.95,1484.27 C1557.78,1490.10 1566.50,1503.11 1570.39,1510.29 C1574.26,1517.49 1581.05,1533.23 1583.97,1541.78 C1586.88,1550.34 1591.42,1567.62 1593.69,1578.74 C1595.21,1586.74 1598.57,1609.85 1600.20,1620.11 C1601.99,1630.03 1606.11,1648.85 1608.43,1657.75 C1611.19,1667.51 1616.34,1682.54 1619.44,1689.91 C1622.54,1697.26 1629.44,1710.61 1633.23,1716.61 C1637.02,1722.59 1645.31,1733.20 1649.79,1737.83 C1654.29,1742.44 1663.96,1750.32 1669.14,1753.58 C1674.33,1756.83 1685.40,1761.97 1691.27,1763.87 C1697.15,1765.75 1709.61,1768.15 1716.18,1768.68 C1722.76,1769.19 1736.60,1768.86 1743.86,1768.02 C1751.14,1767.17 1769.44,1763.48 1772.35,1762.07 C1772.61,1761.95 1796.89,1750.46 1805.25,1746.36 C1822.50,1737.47 1858.62,1717.61 1877.48,1706.64 C1897.15,1694.64 1937.55,1669.25 1958.30,1655.86 C1980.11,1641.10 2024.81,1610.18 2047.70,1594.03 C2071.66,1576.49 2120.66,1540.04 2145.69,1521.13 C2171.80,1500.83 2225.09,1458.85 2252.27,1437.17 C2280.53,1414.11 2338.11,1366.60 2367.44,1342.15 C2397.84,1316.32 2459.72,1263.29 2491.19,1236.07 C2523.62,1207.66 2588.14,1151.55 2620.24,1123.84 C2651.67,1097.35 2713.86,1045.57 2744.62,1020.29 C2774.72,996.22 2834.23,949.29 2863.66,926.43 C2892.42,904.78 2949.26,862.69 2977.35,842.26 C3004.77,823.03 3058.94,785.80 3085.69,767.78 C3098.82,759.23 3124.90,742.43 3137.86,734.18 C3150.65,726.23 3176.07,710.64 3188.69,703.00 C3201.15,695.66 3225.90,681.28 3238.19,674.24 C3250.31,667.51 3274.39,654.34 3286.35,647.91 C3309.92,635.65 3356.08,612.95 3378.65,602.51 C3389.82,597.52 3434.83,578.75 3458.42,569.76 C3470.00,565.64 3492.97,557.78 3504.36,554.03 C3515.54,550.67 3537.70,544.31 3548.68,541.31 C3559.50,538.60 3580.85,533.75 3591.37,531.60 C3601.79,529.64 3622.33,526.29 3632.45,524.89 C3642.46,523.68 3662.18,521.83 3671.89,521.19 C3681.50,520.73 3700.42,520.39 3709.72,520.49 C3718.92,520.79 3737.02,521.95 3745.92,522.81 C3754.72,523.85 3772.01,526.51 3780.50,528.12 C3788.89,529.92 3805.37,534.09 3813.45,536.45 C3821.44,539.00 3837.10,544.66 3844.79,547.78 C3852.36,551.08 3867.22,558.25 3874.49,562.12 C3881.67,566.17 3895.71,574.84 3902.58,579.46 C3912.86,586.76 3978.34,638.27 4002.23,657.01 C4024.11,674.08 4065.87,706.53 4085.75,721.93 C4103.63,735.65 4137.39,761.41 4153.27,773.46 C4160.46,778.85 4174.34,789.23 4181.03,794.20 C4182.63,795.38 4191.35,802.10 4204.15,807.32 C4213.77,811.19 4223.30,812.63 4235.40,813.93 C4237.95,814.19 4242.48,814.63 4244.44,814.81" fill="none" stroke="rgb(69, 199, 255)" stroke-width="150.00" stroke-opacity="1.00" stroke-linejoin="miter"/>
</g>
</svg>
