<!--?xml version="1.0" encoding="utf-8"?-->
<!-- Generator: Adobe Illustrator 22.1.0, SVG Export Plug-In . SVG Version: 6.00 Build 0)  -->
<svg version="1.1" id="_x35_" xmlns="http://www.w3.org/2000/svg"
	xmlns:xlink="http://www.w3.org/1999/xlink" x="0px" y="0px" viewBox="0 0 404.755 800"
	style="width: 253px;" xml:space="preserve">
<style type="text/css">
	.st0{fill:#8ad3f2;}
</style>
<g>
	<path class="st0" d="M4.301,229.416c10.116-25.286,53.88-29.615,87.69-33.576c7.04-32.464,19.836-61.271,33.372-83.791
		c0.016-0.072,0.051-0.113,0.102-0.195c-25.69-1.827-45.964-23.173-45.964-49.337c0-27.348,22.173-49.511,49.522-49.511
		c13.966,0,26.594,5.818,35.582,15.149C167.096,18.374,176.533,2,202.392,2c25.848,0,35.286,16.374,37.756,26.155
		c8.998-9.331,21.595-15.149,35.597-15.149c27.358,0,49.522,22.163,49.522,49.511c0,26.164-20.27,47.51-45.964,49.337
		c0.036,0.082,0.071,0.123,0.122,0.195c13.511,22.52,26.333,51.328,33.361,83.791c33.795,3.961,77.574,8.29,87.666,33.576
		c11.005,27.512-7.329,75.197-29.324,73.369c-10.74-0.899-33.228-20.111-53.463-39.547c-5.803,57.381-81.75,101.319-69.984,149.575
		c13.658,56.137,74.195,56.137,110.874,142.327c26.526,62.344,4.538,148.493-0.142,136.028
		c-4.666-12.475-22.045-67.05-38.512-82.536c-20.453-19.243-31.044-29.656-33.795,12.148c-3.027,46-33.092,99.656-54.111,103.085
		c-8.268,1.347,2.563-33.852,2.614-43.989c0.133-24.786-5.533-35.495-6.544-57.78c-1.72-38.701-3.66-78.607-25.674-78.607
		c-22.566,0,7.462,37.628-7.075,96.011c-6.993,28.064,1.394,88.662,3.42,113.427c1.459,17.702,12.587,40.18,11.116,42.763
		c-5.767,10.321-27.558-15.935-41.513-40.038c-10.408-17.966-31.774-22.672-35.515-44.968
		c-7.463-44.459-34.413-120.094-49.409-105.118c-21.994,22.01-11.99,90.468-16.599,80.096
		c-22.009-49.522-43.891-103.728-5.507-159.569c60.526-88.028,95.761-62.854,95.761-113.284c0-49.665-64.513-92.225-69.984-149.566
		c-20.234,19.427-42.712,38.639-53.437,39.538C11.64,304.612-6.704,256.928,4.301,229.416z"></path>
</g>
</svg>